<?xml version="1.0"?><svg width="135.55" height="135.511" xmlns="http://www.w3.org/2000/svg">
 <title>Info</title>
 <radialGradient cx="44.4468" cy="46.3291" gradientUnits="userSpaceOnUse" id="XMLID_2_" r="84.7307">
  <stop id="stop6" offset="0" stop-color="#FFC154"/>
  <stop id="stop8" offset="1" stop-color="#F29B00"/>
 </radialGradient>
 <g>
  <title>Layer 1</title>
  <path d="m135.550003,67.732002c0,34.532997 -27.088005,64.335991 -61.504005,67.499992c-34.427998,3.165009 -66.643998,-21.044998 -72.941998,-55.091995c-6.297,-34.040001 14.950001,-68.329999 48.310001,-77.685989c33.372002,-9.357 69.43,8.813 81.737991,41.207001c2.915009,7.672989 4.39801,15.863991 4.39801,24.070992" id="path3" fill="#004c99"/>
  <path d="m130.755005,68.732002c0,34.329994 -28.665009,62.995003 -62.994995,62.995003c-34.331009,0 -62.995,-28.665009 -62.995,-62.995003c0,-34.331001 28.663999,-62.995002 62.995,-62.995002c34.329987,0 62.994995,28.664001 62.994995,62.995002" id="path10" fill="#88b9ea"/>
  <path d="m124.68,43.245998c5.088997,29.667004 -12.628998,59.467999 -41.123001,69.175999c-30.219997,10.297012 -64.224998,-4.922997 -76.862999,-34.193001c6.073,35.425003 42.497002,58.71302 77.203003,49.347c35.830994,-9.670998 55.552002,-50.161987 40.782997,-84.329998" id="path12" fill="#56aaff"/>
  <path d="m107.105003,39.768002c-8.712006,1.801998 -18.743004,-10.540001 -26.297005,-13.679001c-14.113998,-5.867001 -31.740997,-3.143002 -44.525997,4.845999c-13.523001,8.448999 -23.141002,24.680002 -24.622002,40.610998c-0.004,0.045006 -0.005,0.054001 -0.002,0.024002c0.999,-9.646999 0.325,-18.716999 3.999,-28.042999c6.087,-15.458 19.253,-27.563001 35.127001,-32.426001c16.41,-5.027 34.355999,-1.828 48.494999,7.753c4.363998,2.959999 21.168999,18.151001 7.826012,20.914001" id="path14" fill="#a1c7ed"/>
  <path d="m81.825127,29.78055c0,12.314001 -2.119003,25.257002 -4.87101,37.212011c-1.649994,7.165985 -8.261993,26.566986 -15.228996,11.318985c-5.728001,-12.532997 -6.635002,-27.952995 -7.569,-41.523994c-0.410999,-5.937002 -1.028999,-11.817001 4.484001,-15.813002c7.694,-5.579 23.185005,-2.528 23.185005,8.806" id="path16" fill="#005ebc"/>
  <path d="m79.002121,30.23855c0,10.672998 -1.893997,21.807001 -3.910988,32.247c-0.735016,3.797997 -5.393013,25.675003 -11.130013,13.661003c-5.279999,-11.055992 -5.750999,-25.315002 -6.629002,-37.340004c-0.334,-4.556999 -1.279999,-9.924999 1.812,-13.780998c5.228004,-6.521 19.858002,-4.395 19.858002,5.212999" id="path18" fill="#ffffff"/>
  <path d="m81.092628,105.853912c0,-17.25 -26.750999,-17.248001 -26.750999,0c0,17.25 26.750999,17.251999 26.750999,0" id="path20" fill="#005ab5"/>
  <path d="m77.982628,105.353897c0,-13.907646 -20.531998,-13.907639 -20.531998,0c0,13.907646 20.531998,13.909737 20.531998,0" id="path22" fill="#ffffff"/>
 </g>
</svg>